<?xml version="1.0" standalone="no"?>
<svg xmlns:xlink="http://www.w3.org/1999/xlink" id="wave" style="transform:rotate(0deg); transition: 0.3s" viewBox="0 0 1440 130" version="1.1" xmlns="http://www.w3.org/2000/svg"><defs><linearGradient id="sw-gradient-0" x1="0" x2="0" y1="1" y2="0"><stop stop-color="rgba(27, 30, 61, 1)" offset="0%"/><stop stop-color="rgba(27, 30, 61, 1)" offset="100%"/></linearGradient></defs><path style="transform:translate(0, 0px); opacity:1" fill="url(#sw-gradient-0)" d="M0,39L13.3,45.5C26.7,52,53,65,80,78C106.7,91,133,104,160,99.7C186.7,95,213,74,240,73.7C266.7,74,293,95,320,88.8C346.7,82,373,48,400,30.3C426.7,13,453,13,480,19.5C506.7,26,533,39,560,43.3C586.7,48,613,43,640,45.5C666.7,48,693,56,720,60.7C746.7,65,773,65,800,69.3C826.7,74,853,82,880,73.7C906.7,65,933,39,960,43.3C986.7,48,1013,82,1040,99.7C1066.7,117,1093,117,1120,110.5C1146.7,104,1173,91,1200,75.8C1226.7,61,1253,43,1280,36.8C1306.7,30,1333,35,1360,41.2C1386.7,48,1413,56,1440,65C1466.7,74,1493,82,1520,75.8C1546.7,69,1573,48,1600,34.7C1626.7,22,1653,17,1680,32.5C1706.7,48,1733,82,1760,91C1786.7,100,1813,82,1840,75.8C1866.7,69,1893,74,1907,75.8L1920,78L1920,130L1906.7,130C1893.3,130,1867,130,1840,130C1813.3,130,1787,130,1760,130C1733.3,130,1707,130,1680,130C1653.3,130,1627,130,1600,130C1573.3,130,1547,130,1520,130C1493.3,130,1467,130,1440,130C1413.3,130,1387,130,1360,130C1333.3,130,1307,130,1280,130C1253.3,130,1227,130,1200,130C1173.3,130,1147,130,1120,130C1093.3,130,1067,130,1040,130C1013.3,130,987,130,960,130C933.3,130,907,130,880,130C853.3,130,827,130,800,130C773.3,130,747,130,720,130C693.3,130,667,130,640,130C613.3,130,587,130,560,130C533.3,130,507,130,480,130C453.3,130,427,130,400,130C373.3,130,347,130,320,130C293.3,130,267,130,240,130C213.3,130,187,130,160,130C133.3,130,107,130,80,130C53.3,130,27,130,13,130L0,130Z"/></svg>