<svg fill="none" height="48" viewBox="0 0 48 48" width="48" xmlns="http://www.w3.org/2000/svg"><path d="m0 0h48v48h-48z" fill="#fff" fill-opacity=".01"/><g stroke-linecap="round" stroke-linejoin="round" stroke-width="4"><path d="m44 31c0 5.5228-4.4772 10-10 10-1.7909 0-3.4719-.4708-4.9259-1.2954-2.5598-1.4517-4.4162-4-4.9305-7.0063-.0944-.552-.1436-1.1194-.1436-1.6983 0-2.5677.9678-4.9094 2.5585-6.6802 1.8307-2.038 4.4864-3.3198 7.4415-3.3198 5.5228 0 10 4.4772 10 10z" fill="#2f88ff" stroke="#000"/><path d="m34 12v8 1c-2.9551 0-5.6108 1.2818-7.4415 3.3198-1.5907 1.7708-2.5585 4.1125-2.5585 6.6802 0 .5789.0492 1.1463.1436 1.6983.5143 3.0063 2.3707 5.5546 4.9305 7.0063-2.6625.805-6.1965 1.2954-10.0741 1.2954-8.2843 0-15-2.2386-15-5v-8-8-8" stroke="#000"/><path d="m34 12c0 2.7614-6.7157 5-15 5s-15-2.2386-15-5c0-2.76142 6.7157-5 15-5s15 2.23858 15 5z" fill="#2f88ff" stroke="#000"/><path d="m4 28c0 2.7614 6.7157 5 15 5 1.807 0 3.5393-.1065 5.1436-.3017" stroke="#000"/><path d="m4 20c0 2.7614 6.7157 5 15 5 2.7563 0 5.339-.2478 7.5585-.6802" stroke="#000"/><path d="m38.5 29-5.5 5.5-3-3" stroke="#fff"/></g></svg>