<?xml version="1.0" standalone="no"?>
<!DOCTYPE svg PUBLIC "-//W3C//DTD SVG 20010904//EN"
 "http://www.w3.org/TR/2001/REC-SVG-20010904/DTD/svg10.dtd">
<svg version="1.0" xmlns="http://www.w3.org/2000/svg"
 width="512.000000pt" height="512.000000pt" viewBox="0 0 512.000000 512.000000"
 preserveAspectRatio="xMidYMid meet">

<g transform="translate(0.000000,512.000000) scale(0.100000,-0.100000)"
fill="#000000" stroke="none">
<path d="M92 5100 c-18 -11 -41 -34 -52 -52 -20 -33 -20 -56 -20 -2488 0
-2432 0 -2455 20 -2488 11 -18 34 -41 52 -52 32 -20 48 -20 873 -18 782 3 842
4 866 21 50 34 52 47 53 339 l1 273 -105 -5 c-392 -19 -554 21 -704 172 -62
62 -83 93 -141 208 -107 212 -154 272 -292 372 -46 33 -90 73 -99 90 -14 28
-14 32 0 47 13 13 38 16 114 16 93 0 102 -2 173 -37 100 -49 152 -97 247 -226
132 -178 241 -263 383 -297 111 -26 230 -14 363 36 61 22 75 40 91 119 10 51
68 168 109 222 l36 47 -53 10 c-225 44 -278 55 -354 77 -388 113 -662 371
-772 729 -33 107 -60 256 -71 398 -26 323 45 594 215 817 23 30 45 64 49 76 3
11 -3 60 -14 107 -38 158 -25 376 31 545 31 92 45 98 164 78 151 -25 295 -83
493 -199 119 -69 155 -76 256 -53 344 81 786 80 1154 0 41 -9 90 -14 111 -11
20 2 104 41 186 86 82 45 180 96 217 112 142 62 308 87 355 54 26 -19 65 -134
83 -248 16 -96 8 -308 -15 -390 -19 -70 -15 -81 93 -260 77 -129 103 -190 133
-312 60 -254 47 -515 -41 -778 -158 -471 -423 -686 -985 -797 -88 -17 -168
-34 -178 -38 -15 -6 -12 -14 24 -62 48 -63 73 -117 102 -215 19 -65 21 -104
26 -550 6 -453 7 -482 26 -512 39 -66 -6 -63 944 -63 l861 0 0 2508 c0 2484 0
2507 -20 2540 -11 18 -34 41 -52 52 -33 20 -56 20 -2468 20 -2412 0 -2435 0
-2468 -20z"/>
</g>
</svg>
