<svg width="37" height="110" viewBox="0 0 37 110" fill="none" xmlns="http://www.w3.org/2000/svg">
<path d="M18.8954 8.09402C18.4257 8.06015 18.6226 8.09403 18.2859 8.09403C17.9491 8.09403 18.1932 8.05674 17.6763 8.09402C13.5163 8.39407 10.2173 11.6585 10.2173 15.6731V26.192C10.2173 30.4027 13.8363 33.8287 18.2843 33.8287C22.7323 33.8287 26.3514 30.4027 26.3514 26.192V15.6731C26.3529 11.6585 23.0554 8.39407 18.8954 8.09402ZM25.1354 26.1905C25.1354 29.7666 22.0634 32.6747 18.2859 32.6747C14.5083 32.6747 11.4363 29.7666 11.4363 26.1905V15.6716C11.4363 12.097 14.5083 9.1889 18.2859 9.1889C22.0634 9.1889 25.1354 12.097 25.1354 15.6731V26.1905Z" fill="white"/>
<path d="M18.2861 11.9008C17.5211 11.9008 16.8994 12.4908 16.8994 13.215V16.8978C16.8994 17.6219 17.5211 18.2105 18.2861 18.2105C19.051 18.2105 19.6727 17.6219 19.6727 16.8978V13.2135C19.6727 12.4894 19.051 11.9008 18.2861 11.9008ZM18.4537 16.8963C18.4537 17.0723 18.1169 17.0723 18.1169 16.8963V13.2135C18.1169 13.1256 18.1931 13.0534 18.2846 13.0534C18.376 13.0534 18.4522 13.1256 18.4522 13.2135V16.8963H18.4537Z" fill="white"/>
<path d="M17.579 108.897C17.9696 109.287 18.6027 109.287 18.9932 108.897L25.3572 102.533C25.7477 102.142 25.7477 101.509 25.3572 101.119C24.9667 100.728 24.3335 100.728 23.943 101.119L18.2861 106.775L12.6293 101.119C12.2388 100.728 11.6056 100.728 11.2151 101.119C10.8245 101.509 10.8245 102.142 11.2151 102.533L17.579 108.897ZM17.2861 57.9897L17.2861 108.19L19.2861 108.19L19.2861 57.9897L17.2861 57.9897Z" fill="white"/>
<path d="M18.2861 54.5276L18.2861 50.2" stroke="white" stroke-width="2"/>
<path d="M18.2861 45.8724L18.2861 41.5449" stroke="white" stroke-width="2"/>
</svg>
