<?xml version="1.0" standalone="no"?>
<!DOCTYPE svg PUBLIC "-//W3C//DTD SVG 20010904//EN"
 "http://www.w3.org/TR/2001/REC-SVG-20010904/DTD/svg10.dtd">
<svg version="1.0" xmlns="http://www.w3.org/2000/svg"
 width="512.000000pt" height="512.000000pt" viewBox="0 0 512.000000 512.000000"
 preserveAspectRatio="xMidYMid meet">

<g transform="translate(0.000000,512.000000) scale(0.100000,-0.100000)"
fill="#000000" stroke="none">
<path d="M4462 5105 c-333 -37 -678 -119 -981 -235 -141 -53 -381 -160 -381
-169 0 -10 1599 -1606 1603 -1601 31 33 165 353 227 540 116 352 208 876 183
1039 -33 206 -168 360 -363 414 -85 24 -154 26 -288 12z"/>
<path d="M1650 3649 c-352 -45 -725 -207 -1027 -446 -219 -173 -429 -427 -560
-679 -45 -87 -55 -115 -55 -155 0 -89 69 -159 156 -159 19 0 84 20 143 44 209
86 390 126 611 135 l144 6 47 125 c73 191 167 389 263 557 118 207 162 270
381 559 l19 24 -29 -1 c-15 -1 -57 -5 -93 -10z"/>
<path d="M725 2033 c-153 -93 -287 -180 -298 -194 -26 -36 -35 -86 -24 -139 8
-43 42 -78 625 -663 657 -658 656 -657 737 -644 77 13 93 32 269 326 91 153
166 283 166 287 0 10 -1181 1194 -1191 1194 -2 0 -131 -75 -284 -167z"/>
<path d="M3620 1742 c-315 -258 -702 -480 -1100 -633 l-125 -47 -7 -149 c-10
-222 -50 -399 -134 -600 -28 -67 -44 -121 -44 -147 0 -80 58 -147 141 -161 36
-6 53 -1 147 45 603 293 1049 906 1147 1578 21 144 20 151 -25 114z"/>
</g>
</svg>
