<?xml version="1.0" standalone="no"?>
<!DOCTYPE svg PUBLIC "-//W3C//DTD SVG 20010904//EN"
 "http://www.w3.org/TR/2001/REC-SVG-20010904/DTD/svg10.dtd">
<svg version="1.0" xmlns="http://www.w3.org/2000/svg"
 width="51.000000pt" height="64.000000pt" viewBox="0 0 51.000000 64.000000"
 preserveAspectRatio="xMidYMid meet">

<g transform="translate(0.000000,64.000000) scale(0.100000,-0.100000)"
fill="#000000" stroke="none">
<path d="M156 572 c-10 -16 -6 -501 4 -507 6 -4 10 90 10 254 0 144 -2 261 -4
261 -3 0 -7 -4 -10 -8z"/>
<path d="M183 485 c0 -22 2 -30 4 -17 2 12 2 30 0 40 -3 9 -5 -1 -4 -23z"/>
<path d="M295 411 c-44 -44 -81 -85 -83 -91 -5 -15 158 -181 171 -173 5 3 -28
43 -74 89 l-83 83 75 76 c65 67 89 95 77 95 -2 0 -39 -36 -83 -79z"/>
<path d="M335 410 c-21 -22 -35 -40 -29 -40 5 0 28 18 49 40 21 22 35 40 29
40 -5 0 -28 -18 -49 -40z"/>
<path d="M184 315 c0 -72 1 -99 3 -62 2 37 2 96 0 130 -2 34 -3 4 -3 -68z"/>
<path d="M265 340 c-18 -20 -18 -21 8 -48 15 -14 27 -21 27 -14 0 7 -7 15 -15
18 -20 8 -19 23 2 46 9 10 12 18 6 18 -5 0 -18 -9 -28 -20z"/>
<path d="M310 264 c0 -6 17 -26 38 -45 l37 -34 -35 40 c-19 22 -36 42 -37 44
-2 2 -3 0 -3 -5z"/>
<path d="M182 145 c0 -16 2 -22 5 -12 2 9 2 23 0 30 -3 6 -5 -1 -5 -18z"/>
</g>
</svg>
